<svg xmlns="http://www.w3.org/2000/svg" viewBox="0 0 128 128" role="img" aria-label="saier — elegant online painting board">
  <defs>
    <linearGradient id="tile" x1="14" y1="10" x2="116" y2="120" gradientUnits="userSpaceOnUse">
      <stop offset="0" stop-color="#ff8a66" />
      <stop offset=".5" stop-color="#e8402e" />
      <stop offset="1" stop-color="#ac281a" />
    </linearGradient>
    <linearGradient id="sheen" x1="0" y1="18" x2="0" y2="110" gradientUnits="userSpaceOnUse">
      <stop offset="0" stop-color="#ffffff" />
      <stop offset="1" stop-color="#fff0ea" />
    </linearGradient>
    <radialGradient id="glow" cx=".32" cy=".26" r=".9">
      <stop offset="0" stop-color="#ffffff" stop-opacity=".4" />
      <stop offset=".5" stop-color="#ffffff" stop-opacity="0" />
    </radialGradient>
    <filter id="shadow" x="-30%" y="-30%" width="160%" height="170%">
      <feDropShadow dx="0" dy="5" stdDeviation="6" flood-color="#7a1a0e" flood-opacity=".28" />
    </filter>
    <filter id="ink" x="-20%" y="-20%" width="140%" height="140%">
      <feDropShadow dx="0" dy="1.2" stdDeviation="1.4" flood-color="#6e160b" flood-opacity=".35" />
    </filter>
  </defs>

  <g filter="url(#shadow)">
    <rect x="30" y="20" width="68" height="68" rx="17" fill="#e8402e" opacity=".22" />
    <rect x="24" y="25" width="80" height="80" rx="19" fill="#e8402e" opacity=".4" />
    <rect x="16" y="16" width="96" height="96" rx="22" fill="url(#tile)" />
  </g>
  <rect x="16" y="16" width="96" height="96" rx="22" fill="url(#glow)" />

  <g transform="translate(16 16) scale(2.97)" filter="url(#ink)">
    <path d="M23.7 7.5C23.6 7.2 22.9 7.1 22.6 6.9C22.2 6.7 21.8 6.6 21.4 6.4C21.1 6.3 20.7 6.1 20.3 6.0C20.0 5.9 19.6 5.8 19.2 5.7C18.9 5.6 18.5 5.5 18.1 5.5C17.8 5.4 17.4 5.3 17.0 5.3C16.7 5.3 16.3 5.3 16.0 5.3C15.6 5.3 15.3 5.3 14.9 5.4C14.5 5.4 14.2 5.5 13.8 5.6C13.5 5.7 13.2 5.8 12.8 5.9C12.5 6.1 12.1 6.3 11.8 6.5C11.5 6.7 11.2 6.9 10.9 7.2C10.6 7.4 10.3 7.7 10.1 8.1C9.8 8.4 9.6 8.8 9.4 9.2C9.2 9.6 9.1 10.0 9.0 10.4C8.9 10.8 8.8 11.3 8.8 11.7C8.7 12.2 8.8 12.6 8.8 13.1C8.9 13.5 9.0 14.0 9.1 14.4C9.3 14.8 9.4 15.2 9.6 15.6C9.8 16.0 10.0 16.4 10.3 16.8C10.5 17.1 10.8 17.5 11.1 17.8C11.4 18.2 11.7 18.5 12.1 18.8C12.4 19.1 12.9 19.5 13.2 19.7C13.4 19.9 13.5 20.0 13.7 20.1C13.8 20.2 13.9 20.3 14.1 20.4C14.2 20.5 14.3 20.6 14.3 20.6C14.4 20.7 14.5 20.7 14.5 20.8C14.6 20.8 14.6 20.8 14.7 20.8C14.7 20.8 14.7 20.8 14.8 20.7C14.8 20.7 14.9 20.7 14.9 20.6C15.0 20.6 15.0 20.5 15.1 20.5C15.1 20.4 15.2 20.4 15.3 20.4C15.3 20.3 15.4 20.3 15.5 20.3C15.6 20.4 15.6 20.4 15.7 20.4C15.7 20.5 15.7 20.6 15.7 20.6C15.8 20.7 15.7 20.8 15.7 20.9C15.7 21.0 15.6 21.1 15.6 21.3C15.5 21.4 15.4 21.5 15.3 21.6C15.1 21.7 15.0 21.9 14.8 22.0C14.7 22.1 14.5 22.2 14.3 22.3C14.1 22.4 13.8 22.5 13.6 22.6C13.4 22.7 13.1 22.8 12.8 22.9C12.5 23.0 12.2 23.0 11.9 23.1C11.6 23.1 11.3 23.2 10.9 23.2C10.6 23.2 10.2 23.2 9.8 23.2C9.5 23.2 8.9 22.9 8.7 23.1C8.4 23.4 8.2 24.1 8.3 24.5C8.4 24.8 9.1 24.8 9.5 25.0C9.8 25.1 10.2 25.3 10.6 25.4C11.0 25.6 11.3 25.7 11.7 25.8C12.1 25.9 12.4 26.0 12.8 26.1C13.1 26.1 13.5 26.2 13.9 26.3C14.2 26.3 14.6 26.3 14.9 26.4C15.3 26.4 15.6 26.4 16.0 26.4C16.3 26.4 16.6 26.4 17.0 26.3C17.3 26.3 17.7 26.2 18.0 26.1C18.3 26.0 18.7 25.9 19.0 25.8C19.3 25.6 19.6 25.5 20.0 25.3C20.3 25.1 20.6 24.9 20.9 24.6C21.1 24.4 21.4 24.1 21.7 23.8C21.9 23.5 22.1 23.1 22.3 22.7C22.5 22.4 22.7 22.0 22.8 21.5C22.9 21.1 23.0 20.7 23.0 20.3C23.0 19.8 23.0 19.4 23.0 19.0C22.9 18.5 22.8 18.1 22.7 17.7C22.6 17.3 22.4 16.8 22.2 16.4C22.1 16.1 21.8 15.7 21.6 15.3C21.4 14.9 21.1 14.6 20.8 14.2C20.5 13.9 20.2 13.6 19.9 13.2C19.6 12.9 19.1 12.5 18.8 12.3C18.6 12.1 18.5 12.0 18.4 11.9C18.2 11.8 18.1 11.7 18.0 11.6C17.9 11.5 17.8 11.4 17.8 11.3C17.7 11.2 17.6 11.2 17.6 11.2C17.6 11.1 17.5 11.1 17.5 11.1C17.5 11.2 17.5 11.2 17.4 11.2C17.4 11.3 17.4 11.3 17.3 11.4C17.3 11.4 17.2 11.5 17.2 11.6C17.1 11.6 17.1 11.7 17.0 11.7C16.9 11.8 16.9 11.8 16.8 11.8C16.7 11.8 16.7 11.8 16.6 11.8C16.6 11.7 16.5 11.7 16.5 11.6C16.5 11.6 16.5 11.5 16.5 11.4C16.5 11.3 16.5 11.2 16.6 11.1C16.7 10.9 16.7 10.8 16.9 10.7C17.0 10.6 17.1 10.5 17.2 10.3C17.4 10.2 17.6 10.1 17.8 10.0C18.0 9.9 18.2 9.8 18.4 9.7C18.7 9.6 18.9 9.5 19.2 9.4C19.5 9.3 19.8 9.2 20.1 9.1C20.4 9.1 20.7 9.0 21.1 9.0C21.4 8.9 21.8 8.9 22.1 8.9C22.5 8.9 23.1 9.1 23.3 8.9C23.6 8.6 23.8 7.9 23.7 7.5Z" fill="url(#sheen)" />
  </g>
</svg>
